<?xml version="1.0" encoding="utf-8"?>
<!-- Generator: Circuit Diagram, cdlibrary.dll 1.0.0.0 -->
<!DOCTYPE svg PUBLIC "-//W3C//DTD SVG 1.1//EN" "http://www.w3.org/Graphics/SVG/1.1/DTD/svg11.dtd">
<svg version="1.1" width="380" height="240" xmlns="http://www.w3.org/2000/svg">
	<text x="300" y="100" style="font-family:Arial;font-size:11px;text-anchor:start" dominant-baseline="middle" transform="rotate(0, 300, 100)">BLUE</text>
	<text x="200" y="100" style="font-family:Arial;font-size:11px;text-anchor:start" dominant-baseline="middle" transform="rotate(0, 200, 100)">GREEN</text>
	<text x="100" y="100" style="font-family:Arial;font-size:11px;text-anchor:start" dominant-baseline="middle" transform="rotate(0, 100, 100)">YELLOW</text>
	<text x="30" y="100" style="font-family:Arial;font-size:11px;text-anchor:start" dominant-baseline="middle" transform="rotate(0, 30, 100)">RED</text>
	<line x1="160" y1="80" x2="160" y2="120" style="stroke:rgb(0, 0, 0);stroke-linecap:square;stroke-width:2" />
	<path d="M 160,107 M 152,107 L 168,107 M 160,107 L 168,92 L 152,92 L 160,107" style="fill-opacity:0;fill:rgb(0, 0, 0);stroke:rgb(0, 0, 0);stroke-linecap:square;stroke-width:2" />
	<path d="M 160,105 M 171,103 L 179,111 M 180,112 L 178,108 L 176,110 L 180,112 L 178,108" style="fill-opacity:0;fill:rgb(0, 0, 0);stroke:rgb(0, 0, 0);stroke-linecap:square;stroke-width:2" />
	<path d="M 160,105 M 164,109 L 172,117 M 173,118 L 171,114 L 169,116 L 173,118 L 171,114" style="fill-opacity:0;fill:rgb(0, 0, 0);stroke:rgb(0, 0, 0);stroke-linecap:square;stroke-width:2" />
	<line x1="160" y1="120" x2="160" y2="125" style="stroke:rgb(0, 0, 0);stroke-linecap:square;stroke-width:2" />
	<line x1="160" y1="165" x2="160" y2="170" style="stroke:rgb(0, 0, 0);stroke-linecap:square;stroke-width:2" />
	<path d="M 160,125 L 160,127 L 153,130 L 167,136 L 153,142 L 167,148 L 153,154 L 167,160 L 160,163 L 160,165" style="fill-opacity:0;fill:rgb(0, 0, 0);stroke:rgb(0, 0, 0);stroke-linecap:square;stroke-width:2" />
	<text x="146" y="145" style="font-family:Arial;font-size:11px;text-anchor:end" dominant-baseline="middle" transform="rotate(0, 146, 145)">220 Ω</text>
	<line x1="160" y1="170" x2="160" y2="198" style="stroke:rgb(0, 0, 0);stroke-linecap:square;stroke-width:2" />
	<line x1="152" y1="198" x2="168" y2="198" style="stroke:rgb(0, 0, 0);stroke-linecap:square;stroke-width:2" />
	<line x1="155" y1="204" x2="165" y2="204" style="stroke:rgb(0, 0, 0);stroke-linecap:square;stroke-width:2" />
	<line x1="158" y1="210" x2="162" y2="210" style="stroke:rgb(0, 0, 0);stroke-linecap:square;stroke-width:2" />
	<path d="M 155,60 L 165,60 L 160,50 L 155,60" style="fill-opacity:0;fill:rgb(0, 0, 0);stroke:rgb(0, 0, 0);stroke-linecap:square;stroke-width:2" />
	<text x="154" y="54" style="font-family:Arial;font-size:12px;text-anchor:end" dominant-baseline="middle" transform="rotate(0, 154, 54)">+5V</text>
	<line x1="160" y1="60" x2="160" y2="80" style="stroke:rgb(0, 0, 0);stroke-linecap:square;stroke-width:2" />
	<line x1="250" y1="80" x2="250" y2="120" style="stroke:rgb(0, 0, 0);stroke-linecap:square;stroke-width:2" />
	<path d="M 250,107 M 242,107 L 258,107 M 250,107 L 258,92 L 242,92 L 250,107" style="fill-opacity:0;fill:rgb(0, 0, 0);stroke:rgb(0, 0, 0);stroke-linecap:square;stroke-width:2" />
	<path d="M 250,105 M 261,103 L 269,111 M 270,112 L 268,108 L 266,110 L 270,112 L 268,108" style="fill-opacity:0;fill:rgb(0, 0, 0);stroke:rgb(0, 0, 0);stroke-linecap:square;stroke-width:2" />
	<path d="M 250,105 M 254,109 L 262,117 M 263,118 L 261,114 L 259,116 L 263,118 L 261,114" style="fill-opacity:0;fill:rgb(0, 0, 0);stroke:rgb(0, 0, 0);stroke-linecap:square;stroke-width:2" />
	<line x1="250" y1="120" x2="250" y2="125" style="stroke:rgb(0, 0, 0);stroke-linecap:square;stroke-width:2" />
	<line x1="250" y1="165" x2="250" y2="170" style="stroke:rgb(0, 0, 0);stroke-linecap:square;stroke-width:2" />
	<path d="M 250,125 L 250,127 L 243,130 L 257,136 L 243,142 L 257,148 L 243,154 L 257,160 L 250,163 L 250,165" style="fill-opacity:0;fill:rgb(0, 0, 0);stroke:rgb(0, 0, 0);stroke-linecap:square;stroke-width:2" />
	<text x="236" y="145" style="font-family:Arial;font-size:11px;text-anchor:end" dominant-baseline="middle" transform="rotate(0, 236, 145)">220 Ω</text>
	<line x1="250" y1="170" x2="250" y2="198" style="stroke:rgb(0, 0, 0);stroke-linecap:square;stroke-width:2" />
	<line x1="242" y1="198" x2="258" y2="198" style="stroke:rgb(0, 0, 0);stroke-linecap:square;stroke-width:2" />
	<line x1="245" y1="204" x2="255" y2="204" style="stroke:rgb(0, 0, 0);stroke-linecap:square;stroke-width:2" />
	<line x1="248" y1="210" x2="252" y2="210" style="stroke:rgb(0, 0, 0);stroke-linecap:square;stroke-width:2" />
	<path d="M 245,60 L 255,60 L 250,50 L 245,60" style="fill-opacity:0;fill:rgb(0, 0, 0);stroke:rgb(0, 0, 0);stroke-linecap:square;stroke-width:2" />
	<text x="244" y="54" style="font-family:Arial;font-size:12px;text-anchor:end" dominant-baseline="middle" transform="rotate(0, 244, 54)">+5V</text>
	<line x1="250" y1="60" x2="250" y2="80" style="stroke:rgb(0, 0, 0);stroke-linecap:square;stroke-width:2" />
	<line x1="340" y1="80" x2="340" y2="120" style="stroke:rgb(0, 0, 0);stroke-linecap:square;stroke-width:2" />
	<path d="M 340,107 M 332,107 L 348,107 M 340,107 L 348,92 L 332,92 L 340,107" style="fill-opacity:0;fill:rgb(0, 0, 0);stroke:rgb(0, 0, 0);stroke-linecap:square;stroke-width:2" />
	<path d="M 340,105 M 351,103 L 359,111 M 360,112 L 358,108 L 356,110 L 360,112 L 358,108" style="fill-opacity:0;fill:rgb(0, 0, 0);stroke:rgb(0, 0, 0);stroke-linecap:square;stroke-width:2" />
	<path d="M 340,105 M 344,109 L 352,117 M 353,118 L 351,114 L 349,116 L 353,118 L 351,114" style="fill-opacity:0;fill:rgb(0, 0, 0);stroke:rgb(0, 0, 0);stroke-linecap:square;stroke-width:2" />
	<line x1="340" y1="120" x2="340" y2="125" style="stroke:rgb(0, 0, 0);stroke-linecap:square;stroke-width:2" />
	<line x1="340" y1="165" x2="340" y2="170" style="stroke:rgb(0, 0, 0);stroke-linecap:square;stroke-width:2" />
	<path d="M 340,125 L 340,127 L 333,130 L 347,136 L 333,142 L 347,148 L 333,154 L 347,160 L 340,163 L 340,165" style="fill-opacity:0;fill:rgb(0, 0, 0);stroke:rgb(0, 0, 0);stroke-linecap:square;stroke-width:2" />
	<text x="326" y="145" style="font-family:Arial;font-size:11px;text-anchor:end" dominant-baseline="middle" transform="rotate(0, 326, 145)">220 Ω</text>
	<line x1="340" y1="170" x2="340" y2="198" style="stroke:rgb(0, 0, 0);stroke-linecap:square;stroke-width:2" />
	<line x1="332" y1="198" x2="348" y2="198" style="stroke:rgb(0, 0, 0);stroke-linecap:square;stroke-width:2" />
	<line x1="335" y1="204" x2="345" y2="204" style="stroke:rgb(0, 0, 0);stroke-linecap:square;stroke-width:2" />
	<line x1="338" y1="210" x2="342" y2="210" style="stroke:rgb(0, 0, 0);stroke-linecap:square;stroke-width:2" />
	<path d="M 335,60 L 345,60 L 340,50 L 335,60" style="fill-opacity:0;fill:rgb(0, 0, 0);stroke:rgb(0, 0, 0);stroke-linecap:square;stroke-width:2" />
	<text x="334" y="54" style="font-family:Arial;font-size:12px;text-anchor:end" dominant-baseline="middle" transform="rotate(0, 334, 54)">+5V</text>
	<line x1="340" y1="60" x2="340" y2="80" style="stroke:rgb(0, 0, 0);stroke-linecap:square;stroke-width:2" />
	<line x1="70" y1="80" x2="70" y2="120" style="stroke:rgb(0, 0, 0);stroke-linecap:square;stroke-width:2" />
	<path d="M 70,107 M 62,107 L 78,107 M 70,107 L 78,92 L 62,92 L 70,107" style="fill-opacity:0;fill:rgb(0, 0, 0);stroke:rgb(0, 0, 0);stroke-linecap:square;stroke-width:2" />
	<path d="M 70,105 M 81,103 L 89,111 M 90,112 L 88,108 L 86,110 L 90,112 L 88,108" style="fill-opacity:0;fill:rgb(0, 0, 0);stroke:rgb(0, 0, 0);stroke-linecap:square;stroke-width:2" />
	<path d="M 70,105 M 74,109 L 82,117 M 83,118 L 81,114 L 79,116 L 83,118 L 81,114" style="fill-opacity:0;fill:rgb(0, 0, 0);stroke:rgb(0, 0, 0);stroke-linecap:square;stroke-width:2" />
	<line x1="70" y1="120" x2="70" y2="125" style="stroke:rgb(0, 0, 0);stroke-linecap:square;stroke-width:2" />
	<line x1="70" y1="165" x2="70" y2="170" style="stroke:rgb(0, 0, 0);stroke-linecap:square;stroke-width:2" />
	<path d="M 70,125 L 70,127 L 63,130 L 77,136 L 63,142 L 77,148 L 63,154 L 77,160 L 70,163 L 70,165" style="fill-opacity:0;fill:rgb(0, 0, 0);stroke:rgb(0, 0, 0);stroke-linecap:square;stroke-width:2" />
	<text x="56" y="145" style="font-family:Arial;font-size:11px;text-anchor:end" dominant-baseline="middle" transform="rotate(0, 56, 145)">220 Ω</text>
	<line x1="70" y1="170" x2="70" y2="198" style="stroke:rgb(0, 0, 0);stroke-linecap:square;stroke-width:2" />
	<line x1="62" y1="198" x2="78" y2="198" style="stroke:rgb(0, 0, 0);stroke-linecap:square;stroke-width:2" />
	<line x1="65" y1="204" x2="75" y2="204" style="stroke:rgb(0, 0, 0);stroke-linecap:square;stroke-width:2" />
	<line x1="68" y1="210" x2="72" y2="210" style="stroke:rgb(0, 0, 0);stroke-linecap:square;stroke-width:2" />
	<path d="M 65,60 L 75,60 L 70,50 L 65,60" style="fill-opacity:0;fill:rgb(0, 0, 0);stroke:rgb(0, 0, 0);stroke-linecap:square;stroke-width:2" />
	<text x="64" y="54" style="font-family:Arial;font-size:12px;text-anchor:end" dominant-baseline="middle" transform="rotate(0, 64, 54)">+5V</text>
	<line x1="70" y1="60" x2="70" y2="80" style="stroke:rgb(0, 0, 0);stroke-linecap:square;stroke-width:2" />
	<text x="230" y="30" style="font-family:Arial;font-size:11px;text-anchor:start" dominant-baseline="middle" transform="rotate(0, 230, 30)">PIN 10</text>
	<text x="320" y="30" style="font-family:Arial;font-size:11px;text-anchor:start" dominant-baseline="middle" transform="rotate(0, 320, 30)">PIN 11</text>
	<text x="150" y="30" style="font-family:Arial;font-size:11px;text-anchor:start" dominant-baseline="middle" transform="rotate(0, 150, 30)">PIN 9</text>
	<text x="60" y="30" style="font-family:Arial;font-size:11px;text-anchor:start" dominant-baseline="middle" transform="rotate(0, 60, 30)">PIN 8</text>
</svg>